<?xml version="1.0" encoding="UTF-8" standalone="no"?>
<!-- Created with Inkscape (http://www.inkscape.org/) -->

<svg
   xmlns:dc="http://purl.org/dc/elements/1.1/"
   xmlns:cc="http://creativecommons.org/ns#"
   xmlns:rdf="http://www.w3.org/1999/02/22-rdf-syntax-ns#"
   xmlns:svg="http://www.w3.org/2000/svg"
   xmlns="http://www.w3.org/2000/svg"
   xmlns:sodipodi="http://sodipodi.sourceforge.net/DTD/sodipodi-0.dtd"
   xmlns:inkscape="http://www.inkscape.org/namespaces/inkscape"
   width="300"
   height="150"
   id="svg2"
   version="1.1"
   inkscape:version="0.48.5 r10040"
   sodipodi:docname="communication.svg">
  <defs
     id="defs4">
    <marker
       inkscape:stockid="Arrow1Lstart"
       orient="auto"
       refY="0.0"
       refX="0.0"
       id="Arrow1Lstart"
       style="overflow:visible">
      <path
         id="path3759"
         d="M 0.0,0.0 L 5.0,-5.0 L -12.5,0.0 L 5.0,5.0 L 0.0,0.0 z "
         style="fill-rule:evenodd;stroke:#000000;stroke-width:1.0pt"
         transform="scale(0.8) translate(12.5,0)" />
    </marker>
    <marker
       inkscape:stockid="Arrow1Lend"
       orient="auto"
       refY="0.0"
       refX="0.0"
       id="Arrow1Lend"
       style="overflow:visible;">
      <path
         id="path3762"
         d="M 0.0,0.0 L 5.0,-5.0 L -12.5,0.0 L 5.0,5.0 L 0.0,0.0 z "
         style="fill-rule:evenodd;stroke:#000000;stroke-width:1.0pt;"
         transform="scale(0.8) rotate(180) translate(12.5,0)" />
    </marker>
    <marker
       inkscape:stockid="Arrow2Lend"
       orient="auto"
       refY="0"
       refX="0"
       id="Arrow2Lend"
       style="overflow:visible">
      <path
         id="path3780"
         style="fill-rule:evenodd;stroke-width:0.625;stroke-linejoin:round"
         d="M 8.7185878,4.0337352 -2.2072895,0.01601326 8.7185884,-4.0017078 c -1.7454984,2.3720609 -1.7354408,5.6174519 -6e-7,8.035443 z"
         transform="matrix(-1.1,0,0,-1.1,-1.1,0)"
         inkscape:connector-curvature="0" />
    </marker>
    <marker
       inkscape:stockid="Arrow1Mend"
       orient="auto"
       refY="0"
       refX="0"
       id="Arrow1Mend"
       style="overflow:visible">
      <path
         id="path3768"
         d="M 0,0 5,-5 -12.5,0 5,5 0,0 z"
         style="fill-rule:evenodd;stroke:#000000;stroke-width:1pt"
         transform="matrix(-0.4,0,0,-0.4,-4,0)"
         inkscape:connector-curvature="0" />
    </marker>
  </defs>
  <sodipodi:namedview
     id="base"
     pagecolor="#ffffff"
     bordercolor="#666666"
     borderopacity="1.0"
     inkscape:pageopacity="0.0"
     inkscape:pageshadow="2"
     inkscape:zoom="1.4142136"
     inkscape:cx="93.396924"
     inkscape:cy="96.387462"
     inkscape:document-units="px"
     inkscape:current-layer="layer1"
     showgrid="false"
     inkscape:window-width="1279"
     inkscape:window-height="1374"
     inkscape:window-x="1280"
     inkscape:window-y="27"
     inkscape:window-maximized="0" />
  <metadata
     id="metadata7">
    <rdf:RDF>
      <cc:Work
         rdf:about="">
        <dc:format>image/svg+xml</dc:format>
        <dc:type
           rdf:resource="http://purl.org/dc/dcmitype/StillImage" />
        <dc:title></dc:title>
      </cc:Work>
    </rdf:RDF>
  </metadata>
  <g
     inkscape:label="Layer 1"
     inkscape:groupmode="layer"
     id="layer1"
     transform="translate(0,-902.36215)">
    <path
       style="fill:#000000;stroke:#000000;stroke-width:2;stroke-linecap:butt;stroke-linejoin:miter;stroke-miterlimit:4;stroke-opacity:1;stroke-dasharray:none;marker-end:url(#Arrow1Mend)"
       d="m 106.64286,940.11215 79.46428,0"
       id="path2985"
       inkscape:connector-curvature="0" />
    <text
       xml:space="preserve"
       style="font-size:40px;font-style:normal;font-weight:normal;line-height:125%;letter-spacing:0px;word-spacing:0px;fill:#000000;fill-opacity:1;stroke:none;font-family:Sans"
       x="113.75"
       y="928.36212"
       id="text4751"
       sodipodi:linespacing="125%"><tspan
         sodipodi:role="line"
         id="tspan4753"
         x="113.75"
         y="928.36212"
         style="font-size:16px">request</tspan></text>
    <path
       inkscape:connector-curvature="0"
       id="path4755"
       d="m 187.60714,970.11215 -79.46428,0"
       style="fill:#000000;stroke:#000000;stroke-width:2;stroke-linecap:butt;stroke-linejoin:miter;stroke-miterlimit:4;stroke-opacity:1;stroke-dasharray:none;marker-end:url(#Arrow1Mend)" />
    <text
       sodipodi:linespacing="125%"
       id="text4757"
       y="958.36212"
       x="113.75"
       style="font-size:40px;font-style:normal;font-weight:normal;line-height:125%;letter-spacing:0px;word-spacing:0px;fill:#000000;fill-opacity:1;stroke:none;font-family:Sans"
       xml:space="preserve"><tspan
         style="font-size:16px"
         y="958.36212"
         x="113.75"
         id="tspan4759"
         sodipodi:role="line">response</tspan><tspan
         style="font-size:16px"
         y="978.36212"
         x="113.75"
         sodipodi:role="line"
         id="tspan4761" /></text>
    <text
       xml:space="preserve"
       style="font-size:40px;font-style:normal;font-weight:normal;line-height:125%;letter-spacing:0px;word-spacing:0px;fill:#000000;fill-opacity:1;stroke:none;font-family:Sans"
       x="121.5"
       y="1014.8621"
       id="text4765"
       sodipodi:linespacing="125%"><tspan
         id="tspan4769"
         sodipodi:role="line"
         x="121.5"
         y="1014.8621"
         style="font-size:16px">update</tspan></text>
    <g
       id="g5025"
       transform="matrix(1.449977,0,0,1.449977,9.744422,907.43827)">
      <path
         id="path4987"
         d="M 55,27.5 C 55,12.337 42.663,0 27.5,0 12.337,0 0,12.337 0,27.5 0,35.509 3.444,42.728 8.926,47.758 L 8.9,47.781 9.792,48.533 c 0.058,0.049 0.121,0.089 0.179,0.137 0.474,0.393 0.965,0.766 1.465,1.127 0.162,0.117 0.324,0.234 0.489,0.348 0.534,0.368 1.082,0.717 1.642,1.048 0.122,0.072 0.245,0.142 0.368,0.212 0.613,0.349 1.239,0.678 1.88,0.98 0.047,0.022 0.095,0.042 0.142,0.064 2.089,0.971 4.319,1.684 6.651,2.105 0.061,0.011 0.122,0.022 0.184,0.033 0.724,0.125 1.456,0.225 2.197,0.292 0.09,0.008 0.18,0.013 0.271,0.021 0.738,0.061 1.484,0.1 2.24,0.1 0.749,0 1.488,-0.039 2.222,-0.098 0.093,-0.008 0.186,-0.013 0.279,-0.021 0.735,-0.067 1.461,-0.164 2.178,-0.287 0.062,-0.011 0.125,-0.022 0.187,-0.034 2.297,-0.412 4.495,-1.109 6.557,-2.055 0.076,-0.035 0.153,-0.068 0.229,-0.104 0.617,-0.29 1.22,-0.603 1.811,-0.936 0.147,-0.083 0.293,-0.167 0.439,-0.253 0.538,-0.317 1.067,-0.648 1.581,-1 0.185,-0.126 0.366,-0.259 0.549,-0.391 0.439,-0.316 0.87,-0.642 1.289,-0.983 0.093,-0.075 0.193,-0.14 0.284,-0.217 L 46.02,47.857 45.993,47.834 C 51.523,42.802 55,35.55 55,27.5 z m -53,0 C 2,13.439 13.439,2 27.5,2 41.561,2 53,13.439 53,27.5 c 0,7.577 -3.325,14.389 -8.589,19.063 -0.294,-0.203 -0.59,-0.385 -0.893,-0.537 l -8.467,-4.233 c -0.76,-0.38 -1.232,-1.144 -1.232,-1.993 v -2.957 c 0.196,-0.242 0.403,-0.516 0.617,-0.817 1.096,-1.548 1.975,-3.27 2.616,-5.123 1.267,-0.602 2.085,-1.864 2.085,-3.289 v -3.545 c 0,-0.867 -0.318,-1.708 -0.887,-2.369 V 17.033 C 38.302,16.514 38.486,13.585 36.367,11.169 34.524,9.065 31.541,8 27.5,8 c -4.041,0 -7.024,1.065 -8.867,3.168 -2.119,2.416 -1.935,5.345 -1.883,5.864 v 4.667 c -0.568,0.661 -0.887,1.502 -0.887,2.369 v 3.545 c 0,1.101 0.494,2.128 1.34,2.821 0.81,3.173 2.477,5.575 3.093,6.389 v 2.894 c 0,0.816 -0.445,1.566 -1.162,1.958 l -7.907,4.313 c -0.252,0.137 -0.502,0.297 -0.752,0.476 C 5.276,41.792 2,35.022 2,27.5 z m 40.459,20.632 c -0.35,0.254 -0.706,0.5 -1.067,0.735 -0.166,0.108 -0.331,0.216 -0.5,0.321 -0.472,0.292 -0.952,0.57 -1.442,0.83 -0.108,0.057 -0.217,0.111 -0.326,0.167 -1.126,0.577 -2.291,1.073 -3.488,1.476 -0.042,0.014 -0.084,0.029 -0.127,0.043 -0.627,0.208 -1.262,0.393 -1.904,0.552 -0.002,0 -0.004,10e-4 -0.006,10e-4 -0.648,0.16 -1.304,0.293 -1.964,0.402 -0.018,0.003 -0.036,0.007 -0.054,0.01 -0.621,0.101 -1.247,0.174 -1.875,0.229 -0.111,0.01 -0.222,0.017 -0.334,0.025 C 28.751,52.97 28.127,53 27.5,53 c -0.634,0 -1.266,-0.031 -1.895,-0.078 -0.109,-0.008 -0.218,-0.015 -0.326,-0.025 -0.634,-0.056 -1.265,-0.131 -1.89,-0.233 -0.028,-0.005 -0.056,-0.01 -0.084,-0.015 -1.322,-0.221 -2.623,-0.546 -3.89,-0.971 -0.039,-0.013 -0.079,-0.027 -0.118,-0.04 -0.629,-0.214 -1.251,-0.451 -1.862,-0.713 -0.004,-0.002 -0.009,-0.004 -0.013,-0.006 -0.578,-0.249 -1.145,-0.525 -1.705,-0.816 -0.073,-0.038 -0.147,-0.074 -0.219,-0.113 -0.511,-0.273 -1.011,-0.568 -1.504,-0.876 -0.146,-0.092 -0.291,-0.185 -0.435,-0.279 -0.454,-0.297 -0.902,-0.606 -1.338,-0.933 -0.045,-0.034 -0.088,-0.07 -0.133,-0.104 0.032,-0.018 0.064,-0.036 0.096,-0.054 l 7.907,-4.313 c 1.36,-0.742 2.205,-2.165 2.205,-3.714 l -10e-4,-3.602 -0.23,-0.278 c -0.022,-0.025 -2.184,-2.655 -3.001,-6.216 l -0.091,-0.396 -0.341,-0.221 c -0.481,-0.311 -0.769,-0.831 -0.769,-1.392 v -3.545 c 0,-0.465 0.197,-0.898 0.557,-1.223 l 0.33,-0.298 v -5.57 L 18.741,16.845 C 18.738,16.821 18.443,14.416 20.137,12.485 21.583,10.837 24.061,10 27.5,10 c 3.426,0 5.896,0.83 7.346,2.466 1.692,1.911 1.415,4.361 1.413,4.381 l -0.009,5.701 0.33,0.298 c 0.359,0.324 0.557,0.758 0.557,1.223 v 3.545 c 0,0.713 -0.485,1.36 -1.181,1.575 l -0.497,0.153 -0.16,0.495 c -0.59,1.833 -1.43,3.526 -2.496,5.032 -0.262,0.37 -0.517,0.698 -0.736,0.949 l -0.248,0.283 V 39.8 c 0,1.612 0.896,3.062 2.338,3.782 l 8.467,4.233 c 0.054,0.027 0.107,0.055 0.16,0.083 -0.107,0.081 -0.217,0.156 -0.325,0.234 z"
         inkscape:connector-curvature="0" />
      <g
         id="g4989" />
      <g
         id="g4991" />
      <g
         id="g4993" />
      <g
         id="g4995" />
      <g
         id="g4997" />
      <g
         id="g4999" />
      <g
         id="g5001" />
      <g
         id="g5003" />
      <g
         id="g5005" />
      <g
         id="g5007" />
      <g
         id="g5009" />
      <g
         id="g5011" />
      <g
         id="g5013" />
      <g
         id="g5015" />
      <g
         id="g5017" />
    </g>
    <g
       id="g5188"
       transform="matrix(1.2881356,0,0,1.2881356,213.37697,918.37065)">
      <g
         id="g5082">
        <path
           id="path5084"
           d="M 10.5,6.5 C 8.019,6.5 6,8.519 6,11 c 0,2.481 2.019,4.5 4.5,4.5 2.481,0 4.5,-2.019 4.5,-4.5 0,-2.481 -2.019,-4.5 -4.5,-4.5 z m 0,7 C 9.122,13.5 8,12.379 8,11 8,9.621 9.122,8.5 10.5,8.5 c 1.378,0 2.5,1.121 2.5,2.5 0,1.379 -1.122,2.5 -2.5,2.5 z"
           inkscape:connector-curvature="0" />
        <circle
           id="circle5086"
           r="1"
           cy="9.5"
           cx="50"
           sodipodi:cx="50"
           sodipodi:cy="9.5"
           sodipodi:rx="1"
           sodipodi:ry="1"
           d="m 51,9.5 c 0,0.552285 -0.447715,1 -1,1 -0.552285,0 -1,-0.447715 -1,-1 0,-0.5522847 0.447715,-1 1,-1 0.552285,0 1,0.4477153 1,1 z" />
        <circle
           id="circle5088"
           r="1"
           cy="9.5"
           cx="46"
           sodipodi:cx="46"
           sodipodi:cy="9.5"
           sodipodi:rx="1"
           sodipodi:ry="1"
           d="m 47,9.5 c 0,0.552285 -0.447715,1 -1,1 -0.552285,0 -1,-0.447715 -1,-1 0,-0.5522847 0.447715,-1 1,-1 0.552285,0 1,0.4477153 1,1 z" />
        <circle
           id="circle5090"
           r="1"
           cy="12.5"
           cx="52"
           sodipodi:cx="52"
           sodipodi:cy="12.5"
           sodipodi:rx="1"
           sodipodi:ry="1"
           d="m 53,12.5 c 0,0.552285 -0.447715,1 -1,1 -0.552285,0 -1,-0.447715 -1,-1 0,-0.552285 0.447715,-1 1,-1 0.552285,0 1,0.447715 1,1 z" />
        <circle
           id="circle5092"
           r="1"
           cy="12.5"
           cx="48"
           sodipodi:cx="48"
           sodipodi:cy="12.5"
           sodipodi:rx="1"
           sodipodi:ry="1"
           d="m 49,12.5 c 0,0.552285 -0.447715,1 -1,1 -0.552285,0 -1,-0.447715 -1,-1 0,-0.552285 0.447715,-1 1,-1 0.552285,0 1,0.447715 1,1 z" />
        <circle
           id="circle5094"
           r="1"
           cy="9.5"
           cx="42"
           sodipodi:cx="42"
           sodipodi:cy="9.5"
           sodipodi:rx="1"
           sodipodi:ry="1"
           d="m 43,9.5 c 0,0.552285 -0.447715,1 -1,1 -0.552285,0 -1,-0.447715 -1,-1 0,-0.5522847 0.447715,-1 1,-1 0.552285,0 1,0.4477153 1,1 z" />
        <circle
           id="circle5096"
           r="1"
           cy="12.5"
           cx="44"
           sodipodi:cx="44"
           sodipodi:cy="12.5"
           sodipodi:rx="1"
           sodipodi:ry="1"
           d="m 45,12.5 c 0,0.552285 -0.447715,1 -1,1 -0.552285,0 -1,-0.447715 -1,-1 0,-0.552285 0.447715,-1 1,-1 0.552285,0 1,0.447715 1,1 z" />
        <circle
           id="circle5098"
           r="1"
           cy="9.5"
           cx="38"
           sodipodi:cx="38"
           sodipodi:cy="9.5"
           sodipodi:rx="1"
           sodipodi:ry="1"
           d="m 39,9.5 c 0,0.552285 -0.447715,1 -1,1 -0.552285,0 -1,-0.447715 -1,-1 0,-0.5522847 0.447715,-1 1,-1 0.552285,0 1,0.4477153 1,1 z" />
        <circle
           id="circle5100"
           r="1"
           cy="12.5"
           cx="40"
           sodipodi:cx="40"
           sodipodi:cy="12.5"
           sodipodi:rx="1"
           sodipodi:ry="1"
           d="m 41,12.5 c 0,0.552285 -0.447715,1 -1,1 -0.552285,0 -1,-0.447715 -1,-1 0,-0.552285 0.447715,-1 1,-1 0.552285,0 1,0.447715 1,1 z" />
        <circle
           id="circle5102"
           r="1"
           cy="9.5"
           cx="34"
           sodipodi:cx="34"
           sodipodi:cy="9.5"
           sodipodi:rx="1"
           sodipodi:ry="1"
           d="m 35,9.5 c 0,0.552285 -0.447715,1 -1,1 -0.552285,0 -1,-0.447715 -1,-1 0,-0.5522847 0.447715,-1 1,-1 0.552285,0 1,0.4477153 1,1 z" />
        <circle
           id="circle5104"
           r="1"
           cy="12.5"
           cx="36"
           sodipodi:cx="36"
           sodipodi:cy="12.5"
           sodipodi:rx="1"
           sodipodi:ry="1"
           d="m 37,12.5 c 0,0.552285 -0.447715,1 -1,1 -0.552285,0 -1,-0.447715 -1,-1 0,-0.552285 0.447715,-1 1,-1 0.552285,0 1,0.447715 1,1 z" />
        <path
           id="path5106"
           d="M 60,16.892 V 5.108 C 60,2.567 57.933,0.5 55.392,0.5 H 4.608 C 2.067,0.5 0,2.567 0,5.108 V 16.891 C 0,18.36 0.703,19.655 1.777,20.499 0.703,21.344 0,22.64 0,24.108 V 35.891 C 0,37.36 0.703,38.655 1.777,39.499 0.703,40.344 0,41.64 0,43.108 V 54.891 C 0,57.433 2.067,59.5 4.608,59.5 h 50.783 c 2.541,0 4.608,-2.067 4.608,-4.608 V 43.108 c 0,-1.469 -0.703,-2.764 -1.777,-3.608 C 59.297,38.656 60,37.36 60,35.892 V 24.108 C 60,22.639 59.297,21.344 58.223,20.5 59.297,19.656 60,18.36 60,16.892 z m -2,26.216 v 11.783 c 0,1.438 -1.17,2.608 -2.608,2.608 H 4.608 C 3.17,57.5 2,56.33 2,54.892 V 43.108 C 2,41.67 3.17,40.5 4.608,40.5 H 55.391 C 56.83,40.5 58,41.67 58,43.108 z m 0,-19 v 11.783 c 0,1.438 -1.17,2.608 -2.608,2.608 H 4.608 C 3.17,38.5 2,37.33 2,35.892 V 24.108 C 2,22.67 3.17,21.5 4.608,21.5 H 55.391 C 56.83,21.5 58,22.67 58,24.108 z M 4.608,19.5 C 3.17,19.5 2,18.33 2,16.892 V 5.108 C 2,3.67 3.17,2.5 4.608,2.5 H 55.391 C 56.83,2.5 58,3.67 58,5.108 v 11.783 c 0,1.438 -1.17,2.608 -2.608,2.608 H 4.608 z"
           inkscape:connector-curvature="0" />
        <path
           id="path5108"
           d="M 10.5,34.5 C 12.981,34.5 15,32.481 15,30 15,27.519 12.981,25.5 10.5,25.5 8.019,25.5 6,27.519 6,30 c 0,2.481 2.019,4.5 4.5,4.5 z m 0,-7 c 1.378,0 2.5,1.121 2.5,2.5 0,1.379 -1.122,2.5 -2.5,2.5 C 9.122,32.5 8,31.379 8,30 8,28.621 9.122,27.5 10.5,27.5 z"
           inkscape:connector-curvature="0" />
        <circle
           id="circle5110"
           r="1"
           cy="28.5"
           cx="50"
           sodipodi:cx="50"
           sodipodi:cy="28.5"
           sodipodi:rx="1"
           sodipodi:ry="1"
           d="m 51,28.5 c 0,0.552285 -0.447715,1 -1,1 -0.552285,0 -1,-0.447715 -1,-1 0,-0.552285 0.447715,-1 1,-1 0.552285,0 1,0.447715 1,1 z" />
        <circle
           id="circle5112"
           r="1"
           cy="28.5"
           cx="46"
           sodipodi:cx="46"
           sodipodi:cy="28.5"
           sodipodi:rx="1"
           sodipodi:ry="1"
           d="m 47,28.5 c 0,0.552285 -0.447715,1 -1,1 -0.552285,0 -1,-0.447715 -1,-1 0,-0.552285 0.447715,-1 1,-1 0.552285,0 1,0.447715 1,1 z" />
        <circle
           id="circle5114"
           r="1"
           cy="31.5"
           cx="52"
           sodipodi:cx="52"
           sodipodi:cy="31.5"
           sodipodi:rx="1"
           sodipodi:ry="1"
           d="m 53,31.5 c 0,0.552285 -0.447715,1 -1,1 -0.552285,0 -1,-0.447715 -1,-1 0,-0.552285 0.447715,-1 1,-1 0.552285,0 1,0.447715 1,1 z" />
        <circle
           id="circle5116"
           r="1"
           cy="31.5"
           cx="48"
           sodipodi:cx="48"
           sodipodi:cy="31.5"
           sodipodi:rx="1"
           sodipodi:ry="1"
           d="m 49,31.5 c 0,0.552285 -0.447715,1 -1,1 -0.552285,0 -1,-0.447715 -1,-1 0,-0.552285 0.447715,-1 1,-1 0.552285,0 1,0.447715 1,1 z" />
        <circle
           id="circle5118"
           r="1"
           cy="28.5"
           cx="42"
           sodipodi:cx="42"
           sodipodi:cy="28.5"
           sodipodi:rx="1"
           sodipodi:ry="1"
           d="m 43,28.5 c 0,0.552285 -0.447715,1 -1,1 -0.552285,0 -1,-0.447715 -1,-1 0,-0.552285 0.447715,-1 1,-1 0.552285,0 1,0.447715 1,1 z" />
        <circle
           id="circle5120"
           r="1"
           cy="31.5"
           cx="44"
           sodipodi:cx="44"
           sodipodi:cy="31.5"
           sodipodi:rx="1"
           sodipodi:ry="1"
           d="m 45,31.5 c 0,0.552285 -0.447715,1 -1,1 -0.552285,0 -1,-0.447715 -1,-1 0,-0.552285 0.447715,-1 1,-1 0.552285,0 1,0.447715 1,1 z" />
        <circle
           id="circle5122"
           r="1"
           cy="28.5"
           cx="38"
           sodipodi:cx="38"
           sodipodi:cy="28.5"
           sodipodi:rx="1"
           sodipodi:ry="1"
           d="m 39,28.5 c 0,0.552285 -0.447715,1 -1,1 -0.552285,0 -1,-0.447715 -1,-1 0,-0.552285 0.447715,-1 1,-1 0.552285,0 1,0.447715 1,1 z" />
        <circle
           id="circle5124"
           r="1"
           cy="31.5"
           cx="40"
           sodipodi:cx="40"
           sodipodi:cy="31.5"
           sodipodi:rx="1"
           sodipodi:ry="1"
           d="m 41,31.5 c 0,0.552285 -0.447715,1 -1,1 -0.552285,0 -1,-0.447715 -1,-1 0,-0.552285 0.447715,-1 1,-1 0.552285,0 1,0.447715 1,1 z" />
        <circle
           id="circle5126"
           r="1"
           cy="28.5"
           cx="34"
           sodipodi:cx="34"
           sodipodi:cy="28.5"
           sodipodi:rx="1"
           sodipodi:ry="1"
           d="m 35,28.5 c 0,0.552285 -0.447715,1 -1,1 -0.552285,0 -1,-0.447715 -1,-1 0,-0.552285 0.447715,-1 1,-1 0.552285,0 1,0.447715 1,1 z" />
        <circle
           id="circle5128"
           r="1"
           cy="31.5"
           cx="36"
           sodipodi:cx="36"
           sodipodi:cy="31.5"
           sodipodi:rx="1"
           sodipodi:ry="1"
           d="m 37,31.5 c 0,0.552285 -0.447715,1 -1,1 -0.552285,0 -1,-0.447715 -1,-1 0,-0.552285 0.447715,-1 1,-1 0.552285,0 1,0.447715 1,1 z" />
        <path
           id="path5130"
           d="M 10.5,53.5 C 12.981,53.5 15,51.481 15,49 15,46.519 12.981,44.5 10.5,44.5 8.019,44.5 6,46.519 6,49 c 0,2.481 2.019,4.5 4.5,4.5 z m 0,-7 c 1.378,0 2.5,1.121 2.5,2.5 0,1.379 -1.122,2.5 -2.5,2.5 C 9.122,51.5 8,50.379 8,49 8,47.621 9.122,46.5 10.5,46.5 z"
           inkscape:connector-curvature="0" />
        <circle
           id="circle5132"
           r="1"
           cy="47.5"
           cx="50"
           sodipodi:cx="50"
           sodipodi:cy="47.5"
           sodipodi:rx="1"
           sodipodi:ry="1"
           d="m 51,47.5 c 0,0.552285 -0.447715,1 -1,1 -0.552285,0 -1,-0.447715 -1,-1 0,-0.552285 0.447715,-1 1,-1 0.552285,0 1,0.447715 1,1 z" />
        <circle
           id="circle5134"
           r="1"
           cy="47.5"
           cx="46"
           sodipodi:cx="46"
           sodipodi:cy="47.5"
           sodipodi:rx="1"
           sodipodi:ry="1"
           d="m 47,47.5 c 0,0.552285 -0.447715,1 -1,1 -0.552285,0 -1,-0.447715 -1,-1 0,-0.552285 0.447715,-1 1,-1 0.552285,0 1,0.447715 1,1 z" />
        <circle
           id="circle5136"
           r="1"
           cy="50.5"
           cx="52"
           sodipodi:cx="52"
           sodipodi:cy="50.5"
           sodipodi:rx="1"
           sodipodi:ry="1"
           d="m 53,50.5 c 0,0.552285 -0.447715,1 -1,1 -0.552285,0 -1,-0.447715 -1,-1 0,-0.552285 0.447715,-1 1,-1 0.552285,0 1,0.447715 1,1 z" />
        <circle
           id="circle5138"
           r="1"
           cy="50.5"
           cx="48"
           sodipodi:cx="48"
           sodipodi:cy="50.5"
           sodipodi:rx="1"
           sodipodi:ry="1"
           d="m 49,50.5 c 0,0.552285 -0.447715,1 -1,1 -0.552285,0 -1,-0.447715 -1,-1 0,-0.552285 0.447715,-1 1,-1 0.552285,0 1,0.447715 1,1 z" />
        <circle
           id="circle5140"
           r="1"
           cy="47.5"
           cx="42"
           sodipodi:cx="42"
           sodipodi:cy="47.5"
           sodipodi:rx="1"
           sodipodi:ry="1"
           d="m 43,47.5 c 0,0.552285 -0.447715,1 -1,1 -0.552285,0 -1,-0.447715 -1,-1 0,-0.552285 0.447715,-1 1,-1 0.552285,0 1,0.447715 1,1 z" />
        <circle
           id="circle5142"
           r="1"
           cy="50.5"
           cx="44"
           sodipodi:cx="44"
           sodipodi:cy="50.5"
           sodipodi:rx="1"
           sodipodi:ry="1"
           d="m 45,50.5 c 0,0.552285 -0.447715,1 -1,1 -0.552285,0 -1,-0.447715 -1,-1 0,-0.552285 0.447715,-1 1,-1 0.552285,0 1,0.447715 1,1 z" />
        <circle
           id="circle5144"
           r="1"
           cy="47.5"
           cx="38"
           sodipodi:cx="38"
           sodipodi:cy="47.5"
           sodipodi:rx="1"
           sodipodi:ry="1"
           d="m 39,47.5 c 0,0.552285 -0.447715,1 -1,1 -0.552285,0 -1,-0.447715 -1,-1 0,-0.552285 0.447715,-1 1,-1 0.552285,0 1,0.447715 1,1 z" />
        <circle
           id="circle5146"
           r="1"
           cy="50.5"
           cx="40"
           sodipodi:cx="40"
           sodipodi:cy="50.5"
           sodipodi:rx="1"
           sodipodi:ry="1"
           d="m 41,50.5 c 0,0.552285 -0.447715,1 -1,1 -0.552285,0 -1,-0.447715 -1,-1 0,-0.552285 0.447715,-1 1,-1 0.552285,0 1,0.447715 1,1 z" />
        <circle
           id="circle5148"
           r="1"
           cy="47.5"
           cx="34"
           sodipodi:cx="34"
           sodipodi:cy="47.5"
           sodipodi:rx="1"
           sodipodi:ry="1"
           d="m 35,47.5 c 0,0.552285 -0.447715,1 -1,1 -0.552285,0 -1,-0.447715 -1,-1 0,-0.552285 0.447715,-1 1,-1 0.552285,0 1,0.447715 1,1 z" />
        <circle
           id="circle5150"
           r="1"
           cy="50.5"
           cx="36"
           sodipodi:cx="36"
           sodipodi:cy="50.5"
           sodipodi:rx="1"
           sodipodi:ry="1"
           d="m 37,50.5 c 0,0.552285 -0.447715,1 -1,1 -0.552285,0 -1,-0.447715 -1,-1 0,-0.552285 0.447715,-1 1,-1 0.552285,0 1,0.447715 1,1 z" />
      </g>
      <g
         id="g5152" />
      <g
         id="g5154" />
      <g
         id="g5156" />
      <g
         id="g5158" />
      <g
         id="g5160" />
      <g
         id="g5162" />
      <g
         id="g5164" />
      <g
         id="g5166" />
      <g
         id="g5168" />
      <g
         id="g5170" />
      <g
         id="g5172" />
      <g
         id="g5174" />
      <g
         id="g5176" />
      <g
         id="g5178" />
      <g
         id="g5180" />
    </g>
    <path
       style="fill:none;stroke:#000000;stroke-width:2;stroke-linecap:butt;stroke-linejoin:miter;stroke-miterlimit:4;stroke-opacity:1;stroke-dasharray:none;marker-end:url(#Arrow1Mend)"
       d="m 240,1000.3622 c 0,0 -39.59151,24.7724 -91,28 -48.76522,3.0617 -65.571502,-11.5064 -84,-34"
       id="path5240"
       inkscape:connector-curvature="0"
       sodipodi:nodetypes="csc" />
  </g>
</svg>
